# xmcd
#
# Track frame offsets:
#	150
#	16284
#	43520
#	54072
#	71490
#	80566
#	90206
#	101572
#	122616
#	134675
#	154948
#	166895
#
# Disc length: 2371 seconds
#
# Revision: 0
# Processed by: cddbd v1.5.2PL0 Copyright (c) Steve Scherf et al.
# Submitted via: audiograbber 1.83.01
#
DISCID=8d09410c
DTITLE=Sampler - The World Of Blues Power
DYEAR=1900
DGENRE=Blues
TTITLE0=John  Mayall with  Eric Clapton - All Your Love
TTITLE1=Ten Years After - Spoonful
TTITLE2=Savoy Brown - Taste and Try, Before You Buy
TTITLE3=John  Mayall with Peter Green - Greeny
TTITLE4=champion Jack Dupree - Barrelhouse Woman
TTITLE5=Ten Years After - I Want To Know
TTITLE6=Eddie Boyd - Blue Coat Man
TTITLE7=John Mayall with Peter Green - Out of Reach
TTITLE8=Champion Jack Dupree - I Feel like a Millionaire
TTITLE9=Savoy Brown - Someday People
TTITLE10=Ten Years After - Feel It For Me
TTITLE11=John  Mayall with  Eric Clapton - Steppin' Out
EXTD=
EXTT0=
EXTT1=
EXTT2=
EXTT3=
EXTT4=
EXTT5=
EXTT6=
EXTT7=
EXTT8=
EXTT9=
EXTT10=
EXTT11=
PLAYORDER=
